<?xml version="1.0" encoding="UTF-8" standalone="no"?>
<svg
   width="17"
   height="16"
   viewBox="0 0 17 16"
   fill="none"
   version="1.1"
   id="svg57"
   sodipodi:docname="heart_filled.svg"
   inkscape:version="1.1 (c68e22c387, 2021-05-23)"
   xmlns:inkscape="http://www.inkscape.org/namespaces/inkscape"
   xmlns:sodipodi="http://sodipodi.sourceforge.net/DTD/sodipodi-0.dtd"
   xmlns="http://www.w3.org/2000/svg"
   xmlns:svg="http://www.w3.org/2000/svg">
  <sodipodi:namedview
     id="namedview59"
     pagecolor="#505050"
     bordercolor="#eeeeee"
     borderopacity="1"
     inkscape:pageshadow="0"
     inkscape:pageopacity="0"
     inkscape:pagecheckerboard="0"
     showgrid="false"
     inkscape:zoom="22.627417"
     inkscape:cx="9.8773978"
     inkscape:cy="7.5351066"
     inkscape:window-width="1360"
     inkscape:window-height="745"
     inkscape:window-x="-8"
     inkscape:window-y="-8"
     inkscape:window-maximized="1"
     inkscape:current-layer="svg57" />
  <g
     clip-path="url(#clip0)"
     id="g50">
    <path
       fill-rule="evenodd"
       clip-rule="evenodd"
       d="M9.13062 3.26001C9.76714 2.62349 10.6304 2.2659 11.5306 2.2659C12.4308 2.2659 13.2941 2.62349 13.9306 3.26001C14.5671 3.89653 14.9247 4.75984 14.9247 5.66001C14.9247 6.56019 14.5671 7.42349 13.9306 8.06001L13.0573 8.93334L8.25729 13.7333L3.45729 8.93334L2.58396 8.06001C1.94744 7.42349 1.58984 6.56019 1.58984 5.66001C1.58984 4.75984 1.94744 3.89653 2.58396 3.26001C3.22048 2.62349 4.08378 2.2659 4.98396 2.2659C5.88413 2.2659 6.74744 2.62349 7.38396 3.26001L8.25729 4.13334L9.13062 3.26001Z"
       stroke="#151515"
       stroke-width="2.5"
       stroke-linecap="round"
       stroke-linejoin="round"
       id="path48" />
  </g>
  <defs
     id="defs55">
    <linearGradient
       id="linearGradient8761"
       inkscape:swatch="solid">
      <stop
         style="stop-color:#000000;stop-opacity:1;"
         offset="0"
         id="stop8759" />
    </linearGradient>
    <clipPath
       id="clip0">
      <rect
         width="16"
         height="16"
         fill="white"
         transform="translate(0.256836)"
         id="rect52" />
    </clipPath>
  </defs>
  <path
     style="fill:#151515;fill-opacity:1;stroke:none;stroke-opacity:1"
     d="M 5.7311278,9.4078212 3.2101471,6.8826816 3.0875348,6.6294227 C 2.9142835,6.2715674 2.8634404,6.0518677 2.8634404,5.6610801 2.8634404,5.2723423 2.9149135,5.0478043 3.082008,4.707635 3.3561295,4.1495813 3.880358,3.7362673 4.5031593,3.5871662 5.0124774,3.4652335 5.604043,3.5536942 6.0633147,3.8204667 6.1990567,3.8993137 6.4456736,4.118028 6.8878415,4.5517047 7.4230144,5.0766007 7.548168,5.1842386 7.7129874,5.2613667 7.9542743,5.3742785 8.2116156,5.4136157 8.4538187,5.37461 8.80551,5.3179718 8.9152387,5.240911 9.594041,4.5738508 c 0.679481,-0.6677271 0.851908,-0.794714 1.281192,-0.9435565 0.216438,-0.075044 0.276726,-0.082645 0.655493,-0.082645 0.378768,0 0.439055,0.0076 0.655494,0.082645 0.941381,0.3263983 1.527425,1.1846712 1.465709,2.1465599 -0.0096,0.1493596 -0.03849,0.3502105 -0.06425,0.4463353 -0.05578,0.2082043 -0.222538,0.5493972 -0.350644,0.7174279 -0.09386,0.1231127 -4.9405279,4.9923436 -4.9692093,4.9923436 -0.00865,0 -1.1501614,-1.136313 -2.5367009,-2.5251398 z"
     id="path477" />
</svg>
